<?xml version="1.0" encoding="UTF-8" standalone="no"?>
<!-- Created with Inkscape (http://www.inkscape.org/) -->

<svg
   width="700"
   height="216"
   viewBox="0 0 185.20833 57.149999"
   version="1.1"
   id="svg5"
   inkscape:version="1.1.1 (c3084ef, 2021-09-22)"
   sodipodi:docname="chain-logo.svg"
   inkscape:export-filename="/Users/arodin/dev/projects/stx/chain/docs/logo.png"
   inkscape:export-xdpi="96"
   inkscape:export-ydpi="96"
   xmlns:inkscape="http://www.inkscape.org/namespaces/inkscape"
   xmlns:sodipodi="http://sodipodi.sourceforge.net/DTD/sodipodi-0.dtd"
   xmlns="http://www.w3.org/2000/svg"
   xmlns:svg="http://www.w3.org/2000/svg">
  <sodipodi:namedview
     id="namedview7"
     pagecolor="#ffffff"
     bordercolor="#666666"
     borderopacity="1.0"
     inkscape:pageshadow="2"
     inkscape:pageopacity="0"
     inkscape:pagecheckerboard="true"
     inkscape:document-units="mm"
     showgrid="false"
     inkscape:zoom="1.2155494"
     inkscape:cx="347.57947"
     inkscape:cy="130.80505"
     inkscape:window-width="1920"
     inkscape:window-height="988"
     inkscape:window-x="1792"
     inkscape:window-y="65"
     inkscape:window-maximized="1"
     inkscape:current-layer="layer1"
     inkscape:snap-global="true"
     fit-margin-top="0"
     fit-margin-left="0"
     fit-margin-right="0"
     fit-margin-bottom="0"
     units="px"
     inkscape:showpageshadow="false"
     showborder="true"
     borderlayer="true" />
  <defs
     id="defs2">
    <marker
       style="overflow:visible"
       id="Arrow1Lstart"
       refX="0.0"
       refY="0.0"
       orient="auto"
       inkscape:stockid="Arrow1Lstart"
       inkscape:isstock="true">
      <path
         transform="scale(0.8) translate(12.5,0)"
         style="fill-rule:evenodd;fill:context-stroke;stroke:context-stroke;stroke-width:1.0pt"
         d="M 0.0,0.0 L 5.0,-5.0 L -12.5,0.0 L 5.0,5.0 L 0.0,0.0 z "
         id="path6802" />
    </marker>
  </defs>
  <g
     inkscape:label="Layer 1"
     inkscape:groupmode="layer"
     id="layer1"
     style="display:inline"
     transform="translate(-12.71084,-54.48283)">
    <rect
       style="display:none;fill:#ffffff;fill-opacity:1;stroke:none;stroke-width:1.95033;stroke-linejoin:round;stroke-miterlimit:4;stroke-dasharray:none;stroke-dashoffset:0;stroke-opacity:1;paint-order:stroke markers fill;stop-color:#000000"
       id="rect7657"
       width="197.30605"
       height="77.253235"
       x="9.2868738"
       y="44.638927"
       ry="0.32521656"
       inkscape:label="light" />
    <rect
       style="display:none;fill:#0d1117;fill-opacity:1;stroke:none;stroke-width:1.95033;stroke-linejoin:round;stroke-miterlimit:4;stroke-dasharray:none;stroke-dashoffset:0;stroke-opacity:1;paint-order:stroke markers fill;stop-color:#000000"
       id="rect7535"
       width="197.30605"
       height="77.253235"
       x="9.2868738"
       y="44.638927"
       ry="0.32521656"
       inkscape:label="dark" />
    <g
       id="g7420"
       style="display:inline"
       inkscape:label="border">
      <path
         id="path836"
         style="display:inline;fill:#000000;fill-opacity:1;stroke:#ffffff;stroke-width:1.5875;stroke-linejoin:round;stroke-miterlimit:4;stroke-dasharray:none;stroke-dashoffset:0;stroke-opacity:1;paint-order:stroke markers fill"
         inkscape:label="C"
         d="m 17.010899,101.49876 c -1.885638,-3.224384 -2.115583,-4.585236 -2.125203,-12.577356 -0.0077,-6.365601 0.08053,-7.586561 0.675312,-9.349114 1.797591,-5.326863 6.045135,-9.21191 11.208886,-10.252286 0.924603,-0.18629 4.826133,-0.315833 8.670066,-0.287873 7.439372,0.05411 9.061647,0.321469 11.839359,1.951192 1.762781,1.03425 4.364963,3.628823 5.38763,5.371933 0.838756,1.429586 1.996954,4.627179 1.761346,4.862787 -0.07707,0.07708 -2.465893,0.1379 -5.308498,0.135178 -4.571622,-0.0044 -5.209453,-0.07358 -5.524278,-0.599393 -0.195735,-0.326974 -0.823299,-0.865301 -1.394564,-1.196305 -0.876833,-0.508106 -1.980493,-0.605708 -7.084375,-0.626554 -3.325157,-0.01358 -6.445109,0.117633 -6.933234,0.291586 -1.025971,0.365616 -2.435995,1.689125 -2.914394,2.735574 -0.440345,0.963205 -0.479814,12.668143 -0.04643,13.767199 0.480479,1.218458 1.862986,2.514308 3.104178,2.909598 1.337789,0.42606 12.22985,0.38601 13.197497,-0.0485 0.399367,-0.17934 1.163764,-0.76372 1.698662,-1.298626 l 0.97254,-0.972541 5.190822,0.005 5.190821,0.005 -0.35163,1.347257 c -0.913349,3.499354 -3.620981,7.148304 -6.647228,8.958154 -3.21373,1.92197 -4.522492,2.14592 -12.668893,2.16781 -6.604724,0.0178 -7.772284,-0.0642 -9.590044,-0.67323 -3.677506,-1.23212 -6.444203,-3.43871 -8.308377,-6.62638 z M 68.561037,57.315039 V 86.38355 c 0.481433,0.81284 0.884812,1.690619 1.352373,2.476333 1.127781,2.018554 3.123449,3.480417 5.091163,4.47053 1.655265,0.66838 2.927731,2.131761 3.421496,3.82819 v -9.506397 c 0,-6.008036 2.522223,-10.903728 8.381911,-10.903728 5.63717,0 8.15868,4.302305 8.15868,10.903728 v 20.100584 h 9.79113 V 84.982084 C 105.05449,76.452156 102.45846,71.18573 96.96964,69.183049 89.62648,66.586984 83.46986,68.218426 78.426069,74.003942 V 62.284763 c 0,-3.263624 -1.631685,-4.969724 -4.89531,-4.969724 z m 9.865032,43.133801 c -0.781706,2.56666 -3.534177,4.45126 -6.241481,4.13309 -1.461511,-0.11444 -2.67575,-0.89888 -3.623551,-1.95544 v 5.1263 h 9.865032 z m 45.219181,0.0352 c -3.11528,0 -4.74709,-1.483474 -4.96961,-4.598753 0,-2.892759 2.00268,-4.747091 5.93386,-5.488824 2.89276,-0.593387 5.563,-1.409293 7.86237,-2.373546 v 3.634492 c 0,5.562997 -3.3378,8.826631 -8.82662,8.826631 z m 2.29937,-24.477198 c 4.07953,0 6.15639,1.1126 6.37891,3.337799 0,2.151025 -2.15103,3.411972 -6.37891,3.931185 -9.93922,0.964253 -16.76316,3.486145 -16.98568,12.906154 0,8.67828 6.52725,13.05451 15.94726,12.31277 10.60678,-0.74173 17.13403,-5.563 17.13403,-16.392301 V 78.751284 c -0.22252,-7.268983 -5.71135,-10.829302 -16.54065,-10.829302 -9.04914,0 -14.1671,3.560319 -15.35387,10.829302 h 9.86505 c 0.51921,-1.854332 2.44772,-2.744412 5.93386,-2.744412 z M 146.7908,57.3152 v 7.714023 h 9.86505 v -2.892758 c 0.0742,-3.189452 -1.48347,-4.821265 -4.7471,-4.821265 z m 0,11.200169 v 39.237681 h 9.86505 V 73.26246 c 0,-3.189452 -1.55764,-4.747091 -4.7471,-4.747091 z m 48.95322,39.237681 V 84.685148 c 0.0742,-11.200168 -5.41466,-16.763166 -16.61482,-16.763166 -11.20017,0 -16.83734,5.562998 -16.83734,16.763166 v 23.067902 h 10.01339 V 82.682469 c 0.0742,-4.079531 2.29937,-6.08221 6.6756,-6.08221 4.37622,0 6.60142,2.002679 6.82394,6.08221 v 20.175141 c 0,3.11528 1.63182,4.67292 4.89544,4.89544 z M 54.799771,89.113209 c 0.0047,-1.183997 -0.410831,-2.367771 -1.261682,-3.243854 -1.658578,-1.707775 -3.203834,-1.949389 -6.122587,-0.95661 -1.713523,0.582831 -2.246658,0.67084 -4.050359,0.666136 -1.741683,-0.0045 -2.408284,-0.110446 -4.127844,-0.655181 -2.246014,-0.711489 -2.955226,-0.772246 -4.129053,-0.353347 -1.220365,0.435498 -2.142364,1.259203 -2.730262,2.438967 -0.900513,1.807098 -0.652603,3.740905 0.667353,5.204937 1.54079,1.708974 3.546492,2.046561 6.284865,1.057624 1.349999,-0.48754 1.853152,-0.557011 4.034941,-0.557011 2.181781,0 2.684933,0.06945 4.034941,0.557011 2.48915,0.898934 4.243073,0.723128 5.788714,-0.580131 1.061031,-0.894655 1.60565,-2.236682 1.610973,-3.578541 z m -2.606931,-0.05679 c 0,1.190181 -1.042481,2.279942 -2.180957,2.279942 -0.59706,0 -0.926011,-0.157648 -1.474665,-0.706303 -0.79147,-0.791468 -0.918592,-1.675963 -0.382562,-2.663713 0.399479,-0.736121 0.905851,-0.991905 1.963514,-0.991905 1.214383,0 2.07467,0.863425 2.07467,2.081979 z m -13.302799,0 c 0.0016,0.390044 -0.154544,0.800664 -0.464921,1.262486 -0.833227,1.239781 -2.824955,1.297054 -3.567587,0.102605 -1.456757,-2.34296 1.392322,-4.684017 3.335534,-2.7408 0.464395,0.464387 0.69531,0.904926 0.696974,1.375676 z m 17.855895,-3.445682 1.991022,-0.01131 -0.519882,1.050925 c -0.729812,1.47529 -0.712141,3.529938 0.04295,4.997477 l 0.534381,1.038548 h -2.054132 c -1.12977,0 -2.026161,-0.04671 -1.991988,-0.103837 1.176858,-1.966829 1.361862,-4.00024 0.52939,-5.818594 L 54.754889,85.62202 56.745912,85.61071 Z M 76.258796,102.067 c 0.565621,-0.57331 0.985228,-1.28257 1.182842,-2.072654 0.357108,-1.42771 0.04091,-3.019553 -0.823341,-4.146844 -0.508458,-0.663135 -1.01613,-1.027736 -2.561031,-1.83863 -2.763697,-1.450698 -4.28618,-3.009457 -5.777705,-5.915721 -0.844335,-1.645295 -1.238701,-2.224226 -1.831287,-2.68662 -1.430492,-1.116218 -3.318108,-1.328736 -5.047622,-0.568407 -1.505253,0.661743 -2.72288,2.675478 -2.700206,4.465879 0.02422,1.909308 1.159019,3.382807 3.497858,4.542217 1.125984,0.558179 1.849769,1.089731 3.126929,2.297216 1.555707,1.47087 1.715022,1.68431 2.499469,3.34627 1.289895,2.732944 2.742517,3.976134 4.739161,4.055124 1.403359,0.0555 2.752153,-0.52228 3.694885,-1.47778 z m -1.930483,-1.75098 c -0.524667,0.52165 -1.315295,0.78843 -2.190402,0.5131 -0.99626,-0.31343 -1.592371,-1.243534 -1.485369,-2.317354 0.188835,-1.894991 2.343979,-2.600498 3.707977,-1.21366 0.934212,0.95004 0.734876,2.25581 -0.03221,3.017914 z m -9.282889,-9.607215 c -0.708155,0.692737 -1.845733,0.872232 -2.73177,0.322214 -0.69501,-0.431435 -1.005762,-1.044325 -0.993583,-1.958737 0.0082,-0.61029 0.154302,-0.920208 0.671206,-1.423414 0.912373,-0.888193 2.114168,-0.891498 2.973996,-0.0083 0.718074,0.737622 0.910547,1.553207 0.55916,2.370317 -0.115971,0.269687 -0.280726,0.503913 -0.479009,0.697883 z" />
    </g>
    <g
       id="g8971"
       inkscape:label="dots">
      <circle
         style="display:inline;fill:#0d1117;fill-opacity:1;stroke:none;stroke-width:0.781074;stroke-linejoin:round;stroke-miterlimit:4;stroke-dasharray:none;stroke-dashoffset:0;stroke-opacity:1;paint-order:stroke markers fill;stop-color:#000000"
         id="path7735"
         cx="36.648746"
         cy="89.138298"
         r="1.4871536" />
      <circle
         style="display:inline;fill:#0d1117;fill-opacity:1;stroke:none;stroke-width:0.781074;stroke-linejoin:round;stroke-miterlimit:4;stroke-dasharray:none;stroke-dashoffset:0;stroke-opacity:1;paint-order:stroke markers fill;stop-color:#000000"
         id="circle8973"
         cx="50.059246"
         cy="89.051773"
         r="1.4871536" />
      <circle
         style="display:inline;fill:#0d1117;fill-opacity:1;stroke:none;stroke-width:0.781074;stroke-linejoin:round;stroke-miterlimit:4;stroke-dasharray:none;stroke-dashoffset:0;stroke-opacity:1;paint-order:stroke markers fill;stop-color:#000000"
         id="circle8975"
         cx="63.556263"
         cy="89.13829"
         r="1.4871536" />
      <circle
         style="display:inline;fill:#0d1117;fill-opacity:1;stroke:none;stroke-width:0.781074;stroke-linejoin:round;stroke-miterlimit:4;stroke-dasharray:none;stroke-dashoffset:0;stroke-opacity:1;paint-order:stroke markers fill;stop-color:#000000"
         id="circle8977"
         cx="72.813835"
         cy="98.828461"
         r="1.4871536" />
    </g>
    <g
       id="g7438"
       inkscape:label="name">
      <path
         id="path7422"
         style="display:inline;fill:#0d1117;fill-opacity:1;stroke:none;stroke-width:3.175;stroke-linejoin:round;stroke-miterlimit:4;stroke-dasharray:none;stroke-dashoffset:0;stroke-opacity:1;paint-order:stroke markers fill"
         d="m 76.258796,102.067 c 0.565621,-0.57331 0.985228,-1.28257 1.182842,-2.072654 0.357108,-1.42771 0.04091,-3.019553 -0.823341,-4.146844 -0.508458,-0.663135 -1.01613,-1.027736 -2.561031,-1.83863 -2.763697,-1.450698 -4.28618,-3.009457 -5.777705,-5.915721 -0.844335,-1.645295 -1.238701,-2.224226 -1.831287,-2.68662 -1.430492,-1.116218 -3.318108,-1.328736 -5.047622,-0.568407 -1.505253,0.661743 -2.72288,2.675478 -2.700206,4.465879 0.02422,1.909308 1.159019,3.382807 3.497858,4.542217 1.125984,0.558179 1.849769,1.089731 3.126929,2.297216 1.555707,1.47087 1.715022,1.68431 2.499469,3.34627 1.289895,2.732944 2.742517,3.976134 4.739161,4.055124 1.403359,0.0555 2.752153,-0.52228 3.694885,-1.47778 z m -1.930483,-1.75098 c -0.524667,0.52165 -1.315295,0.78843 -2.190402,0.5131 -0.99626,-0.31343 -1.592371,-1.243534 -1.485369,-2.317354 0.188835,-1.894991 2.343979,-2.600498 3.707977,-1.21366 0.934212,0.95004 0.734876,2.25581 -0.03221,3.017914 z m -9.282889,-9.607215 c -0.708155,0.692737 -1.845733,0.872232 -2.73177,0.322214 -0.69501,-0.431435 -1.005762,-1.044325 -0.993583,-1.958737 0.0082,-0.61029 0.154302,-0.920208 0.671206,-1.423414 0.912373,-0.888193 2.114168,-0.891498 2.973996,-0.0083 0.718074,0.737622 0.910547,1.553207 0.55916,2.370317 -0.115971,0.269687 -0.280726,0.503913 -0.479009,0.697883 z"
         inkscape:transform-center-x="-4.7493322"
         inkscape:transform-center-y="4.8075522"
         inkscape:label="3" />
      <path
         style="fill:#0d1117;fill-opacity:1;stroke:none;stroke-width:3.175;stroke-linejoin:round;stroke-miterlimit:4;stroke-dasharray:none;stroke-dashoffset:0;stroke-opacity:1;paint-order:stroke markers fill"
         d="m 56.745936,85.610737 1.991022,-0.01131 -0.519882,1.050925 c -0.729812,1.47529 -0.712141,3.529938 0.04295,4.997477 l 0.534381,1.038548 h -2.054132 c -1.12977,0 -2.026161,-0.04671 -1.991988,-0.103837 1.176858,-1.966829 1.361862,-4.00024 0.52939,-5.818594 l -0.522788,-1.141926 1.991023,-0.01131 z"
         id="path7424"
         inkscape:label="2" />
      <path
         id="path7426"
         style="fill:#0d1117;fill-opacity:1;stroke:none;stroke-width:3.175;stroke-linejoin:round;stroke-miterlimit:4;stroke-dasharray:none;stroke-dashoffset:0;stroke-opacity:1;paint-order:stroke markers fill"
         d="m 54.799771,89.113209 c 0.0047,-1.183997 -0.410831,-2.367771 -1.261682,-3.243854 -1.658578,-1.707775 -3.203834,-1.949389 -6.122587,-0.95661 -1.713523,0.582831 -2.246658,0.67084 -4.050359,0.666136 -1.741683,-0.0045 -2.408284,-0.110446 -4.127844,-0.655181 -2.246014,-0.711489 -2.955226,-0.772246 -4.129053,-0.353347 -1.220365,0.435498 -2.142364,1.259203 -2.730262,2.438967 -0.900513,1.807098 -0.652603,3.740905 0.667353,5.204937 1.54079,1.708974 3.546492,2.046561 6.284865,1.057624 1.349999,-0.48754 1.853152,-0.557011 4.034941,-0.557011 2.181781,0 2.684933,0.06945 4.034941,0.557011 2.48915,0.898934 4.243073,0.723128 5.788714,-0.580131 1.061031,-0.894655 1.60565,-2.236682 1.610973,-3.578541 z m -2.606931,-0.05679 c 0,1.190181 -1.042481,2.279942 -2.180957,2.279942 -0.59706,0 -0.926011,-0.157648 -1.474665,-0.706303 -0.79147,-0.791468 -0.918592,-1.675963 -0.382562,-2.663713 0.399479,-0.736121 0.905851,-0.991905 1.963514,-0.991905 1.214383,0 2.07467,0.863425 2.07467,2.081979 z m -13.302799,0 c 0.0016,0.390044 -0.154544,0.800664 -0.464921,1.262486 -0.833227,1.239781 -2.824955,1.297054 -3.567587,0.102605 -1.456757,-2.34296 1.392322,-4.684017 3.335534,-2.7408 0.464395,0.464387 0.69531,0.904926 0.696974,1.375676 z"
         inkscape:label="1" />
      <path
         d="M 195.74402,107.75305 V 84.685148 c 0.0742,-11.200168 -5.41466,-16.763166 -16.61482,-16.763166 -11.20017,0 -16.83734,5.562998 -16.83734,16.763166 v 23.067902 h 10.01339 V 82.682469 c 0.0742,-4.079531 2.29937,-6.08221 6.6756,-6.08221 4.37622,0 6.60142,2.002679 6.82394,6.08221 v 20.175141 c 0,3.11528 1.63182,4.67292 4.89544,4.89544 z"
         style="font-size:74.1733px;line-height:1.25;font-family:'Harabara Mais Demo';-inkscape-font-specification:'Harabara Mais Demo';display:inline;fill:#0d1117;fill-opacity:1;stroke:none;stroke-width:3.175;stroke-linejoin:round;stroke-miterlimit:4;stroke-dasharray:none;stroke-dashoffset:0;stroke-opacity:1;paint-order:stroke markers fill"
         id="path7428"
         inkscape:label="N" />
      <path
         d="m 146.7908,57.3152 v 7.714023 h 9.86505 v -2.892758 c 0.0742,-3.189452 -1.48347,-4.821265 -4.7471,-4.821265 z m 0,11.200169 v 39.237681 h 9.86505 V 73.26246 c 0,-3.189452 -1.55764,-4.747091 -4.7471,-4.747091 z"
         style="font-size:74.1733px;line-height:1.25;font-family:'Harabara Mais Demo';-inkscape-font-specification:'Harabara Mais Demo';display:inline;fill:#0d1117;fill-opacity:1;stroke:none;stroke-width:3.175;stroke-linejoin:round;stroke-miterlimit:4;stroke-dasharray:none;stroke-dashoffset:0;stroke-opacity:1;paint-order:stroke markers fill"
         id="path7430"
         inkscape:label="I" />
      <path
         d="m 123.64525,100.48407 c -3.11528,0 -4.74709,-1.483474 -4.96961,-4.598753 0,-2.892759 2.00268,-4.747091 5.93386,-5.488824 2.89276,-0.593387 5.563,-1.409293 7.86237,-2.373546 v 3.634492 c 0,5.562997 -3.3378,8.826631 -8.82662,8.826631 z m 2.29937,-24.477198 c 4.07953,0 6.15639,1.1126 6.37891,3.337799 0,2.151025 -2.15103,3.411972 -6.37891,3.931185 -9.93922,0.964253 -16.76316,3.486145 -16.98568,12.906154 0,8.67828 6.52725,13.05451 15.94726,12.31277 10.60678,-0.74173 17.13403,-5.563 17.13403,-16.392301 V 78.751284 c -0.22252,-7.268983 -5.71135,-10.829302 -16.54065,-10.829302 -9.04914,0 -14.1671,3.560319 -15.35387,10.829302 h 9.86505 c 0.51921,-1.854332 2.44772,-2.744412 5.93386,-2.744412 z"
         style="font-size:74.1733px;line-height:1.25;font-family:'Harabara Mais Demo';-inkscape-font-specification:'Harabara Mais Demo';display:inline;fill:#0d1117;fill-opacity:1;stroke:none;stroke-width:3.175;stroke-linejoin:round;stroke-miterlimit:4;stroke-dasharray:none;stroke-dashoffset:0;stroke-opacity:1;paint-order:stroke markers fill"
         id="path7432"
         inkscape:label="A" />
      <path
         id="path7434"
         style="font-size:74.1733px;line-height:1.25;font-family:'Harabara Mais Demo';-inkscape-font-specification:'Harabara Mais Demo';display:inline;fill:#0d1117;fill-opacity:1;stroke:none;stroke-width:3.175;stroke-linejoin:round;stroke-miterlimit:4;stroke-dasharray:none;stroke-dashoffset:0;stroke-opacity:1;paint-order:stroke markers fill"
         d="M 68.561037,57.315039 V 86.38355 c 0.481433,0.81284 0.884812,1.690619 1.352373,2.476333 1.127781,2.018554 3.123449,3.480417 5.091163,4.47053 1.655265,0.66838 2.927731,2.131761 3.421496,3.82819 v -9.506397 c 0,-6.008036 2.522223,-10.903728 8.381911,-10.903728 5.63717,0 8.15868,4.302305 8.15868,10.903728 v 20.100584 h 9.79113 V 84.982084 C 105.05449,76.452156 102.45846,71.18573 96.96964,69.183049 89.62648,66.586984 83.46986,68.218426 78.426069,74.003942 V 62.284763 c 0,-3.263624 -1.631685,-4.969724 -4.89531,-4.969724 z m 9.865032,43.133801 c -0.781706,2.56666 -3.534177,4.45126 -6.241481,4.13309 -1.461511,-0.11444 -2.67575,-0.89888 -3.623551,-1.95544 v 5.1263 h 9.865032 z"
         sodipodi:nodetypes="cccccssscccccssccccccc"
         inkscape:label="H" />
      <path
         style="display:inline;fill:#0d1117;fill-opacity:1;stroke:none;stroke-width:3.175;stroke-linejoin:round;stroke-miterlimit:4;stroke-dasharray:none;stroke-dashoffset:0;stroke-opacity:1;paint-order:stroke markers fill"
         d="m 17.010899,101.49876 c -1.885638,-3.224384 -2.115583,-4.585236 -2.125203,-12.577356 -0.0077,-6.365601 0.08053,-7.586561 0.675312,-9.349114 1.797591,-5.326863 6.045135,-9.21191 11.208886,-10.252286 0.924603,-0.18629 4.826133,-0.315833 8.670066,-0.287873 7.439372,0.05411 9.061647,0.321469 11.839359,1.951192 1.762781,1.03425 4.364963,3.628823 5.38763,5.371933 0.838756,1.429586 1.996954,4.627179 1.761346,4.862787 -0.07707,0.07708 -2.465893,0.1379 -5.308498,0.135178 -4.571622,-0.0044 -5.209453,-0.07358 -5.524278,-0.599393 -0.195735,-0.326974 -0.823299,-0.865301 -1.394564,-1.196305 -0.876833,-0.508106 -1.980493,-0.605708 -7.084375,-0.626554 -3.325157,-0.01358 -6.445109,0.117633 -6.933234,0.291586 -1.025971,0.365616 -2.435995,1.689125 -2.914394,2.735574 -0.440345,0.963205 -0.479814,12.668143 -0.04643,13.767199 0.480479,1.218458 1.862986,2.514308 3.104178,2.909598 1.337789,0.42606 12.22985,0.38601 13.197497,-0.0485 0.399367,-0.17934 1.163764,-0.76372 1.698662,-1.298626 l 0.97254,-0.972541 5.190822,0.005 5.190821,0.005 -0.35163,1.347257 c -0.913349,3.499354 -3.620981,7.148304 -6.647228,8.958154 -3.21373,1.92197 -4.522492,2.14592 -12.668893,2.16781 -6.604724,0.0178 -7.772284,-0.0642 -9.590044,-0.67323 -3.677506,-1.23212 -6.444203,-3.43871 -8.308377,-6.62638 z"
         id="path7436"
         inkscape:label="C" />
    </g>
  </g>
</svg>
